<svg width="185" height="32" viewBox="0 0 185 32" fill="none" xmlns="http://www.w3.org/2000/svg">
<path d="M43.608 26.216C43 26.216 42.536 26.048 42.216 25.712C41.896 25.376 41.736 24.904 41.736 24.296V12.152H37.488C36.992 12.152 36.608 12.016 36.336 11.744C36.064 11.472 35.928 11.096 35.928 10.616C35.928 10.12 36.064 9.744 36.336 9.488C36.608 9.216 36.992 9.08 37.488 9.08H49.704C50.2 9.08 50.584 9.216 50.856 9.488C51.128 9.744 51.264 10.12 51.264 10.616C51.264 11.096 51.128 11.472 50.856 11.744C50.584 12.016 50.2 12.152 49.704 12.152H45.456V24.296C45.456 24.904 45.296 25.376 44.976 25.712C44.672 26.048 44.216 26.216 43.608 26.216ZM56.7776 26.264C55.3856 26.264 54.1856 26.016 53.1776 25.52C52.1856 25.008 51.4176 24.296 50.8736 23.384C50.3456 22.456 50.0816 21.368 50.0816 20.12C50.0816 18.904 50.3376 17.84 50.8496 16.928C51.3616 16 52.0736 15.28 52.9856 14.768C53.9136 14.24 54.9616 13.976 56.1296 13.976C56.9776 13.976 57.7456 14.12 58.4336 14.408C59.1216 14.68 59.7136 15.08 60.2096 15.608C60.7056 16.12 61.0816 16.752 61.3376 17.504C61.5936 18.24 61.7216 19.064 61.7216 19.976C61.7216 20.28 61.6256 20.512 61.4336 20.672C61.2416 20.816 60.9616 20.888 60.5936 20.888H53.0576V19.016H59.1056L58.7216 19.352C58.7216 18.696 58.6256 18.152 58.4336 17.72C58.2416 17.272 57.9616 16.936 57.5936 16.712C57.2416 16.488 56.8016 16.376 56.2736 16.376C55.6816 16.376 55.1776 16.512 54.7616 16.784C54.3456 17.056 54.0256 17.448 53.8016 17.96C53.5776 18.472 53.4656 19.088 53.4656 19.808V20C53.4656 21.216 53.7456 22.112 54.3056 22.688C54.8816 23.264 55.7296 23.552 56.8496 23.552C57.2336 23.552 57.6736 23.504 58.1696 23.408C58.6656 23.312 59.1296 23.16 59.5616 22.952C59.9296 22.776 60.2576 22.72 60.5456 22.784C60.8336 22.832 61.0576 22.96 61.2176 23.168C61.3776 23.376 61.4656 23.616 61.4816 23.888C61.5136 24.16 61.4576 24.432 61.3136 24.704C61.1696 24.96 60.9296 25.176 60.5936 25.352C60.0496 25.656 59.4336 25.88 58.7456 26.024C58.0736 26.184 57.4176 26.264 56.7776 26.264ZM69.5655 26.264C68.2855 26.264 67.1655 26.016 66.2055 25.52C65.2615 25.008 64.5335 24.288 64.0215 23.36C63.5095 22.432 63.2535 21.336 63.2535 20.072C63.2535 19.128 63.3975 18.28 63.6855 17.528C63.9735 16.776 64.3895 16.136 64.9335 15.608C65.4935 15.08 66.1655 14.68 66.9495 14.408C67.7335 14.12 68.6055 13.976 69.5655 13.976C70.0615 13.976 70.5895 14.04 71.1495 14.168C71.7095 14.28 72.2615 14.48 72.8055 14.768C73.1255 14.912 73.3415 15.12 73.4535 15.392C73.5815 15.648 73.6295 15.92 73.5975 16.208C73.5655 16.48 73.4615 16.728 73.2855 16.952C73.1255 17.16 72.9175 17.304 72.6615 17.384C72.4055 17.448 72.1175 17.4 71.7975 17.24C71.4935 17.064 71.1735 16.936 70.8375 16.856C70.5175 16.776 70.2135 16.736 69.9255 16.736C69.4455 16.736 69.0215 16.816 68.6535 16.976C68.2855 17.12 67.9735 17.336 67.7175 17.624C67.4775 17.896 67.2855 18.24 67.1415 18.656C67.0135 19.072 66.9495 19.552 66.9495 20.096C66.9495 21.152 67.2055 21.984 67.7175 22.592C68.2455 23.184 68.9815 23.48 69.9255 23.48C70.2135 23.48 70.5175 23.448 70.8375 23.384C71.1575 23.304 71.4775 23.176 71.7975 23C72.1175 22.84 72.4055 22.8 72.6615 22.88C72.9175 22.96 73.1175 23.112 73.2615 23.336C73.4215 23.544 73.5095 23.792 73.5255 24.08C73.5575 24.352 73.5095 24.624 73.3815 24.896C73.2695 25.152 73.0615 25.352 72.7575 25.496C72.2135 25.768 71.6695 25.96 71.1255 26.072C70.5815 26.2 70.0615 26.264 69.5655 26.264ZM77.1144 26.216C76.5224 26.216 76.0664 26.056 75.7464 25.736C75.4424 25.416 75.2904 24.96 75.2904 24.368V10.712C75.2904 10.104 75.4424 9.648 75.7464 9.344C76.0664 9.024 76.5224 8.864 77.1144 8.864C77.6904 8.864 78.1304 9.024 78.4344 9.344C78.7544 9.648 78.9144 10.104 78.9144 10.712V16.424H78.5784C78.9464 15.64 79.4904 15.04 80.2104 14.624C80.9464 14.192 81.7784 13.976 82.7064 13.976C83.6504 13.976 84.4264 14.16 85.0344 14.528C85.6424 14.88 86.0984 15.424 86.4024 16.16C86.7064 16.88 86.8584 17.8 86.8584 18.92V24.368C86.8584 24.96 86.6984 25.416 86.3784 25.736C86.0744 26.056 85.6264 26.216 85.0344 26.216C84.4584 26.216 84.0104 26.056 83.6904 25.736C83.3864 25.416 83.2344 24.96 83.2344 24.368V19.088C83.2344 18.272 83.0824 17.688 82.7784 17.336C82.4904 16.968 82.0424 16.784 81.4344 16.784C80.6664 16.784 80.0504 17.024 79.5864 17.504C79.1384 17.984 78.9144 18.624 78.9144 19.424V24.368C78.9144 25.6 78.3144 26.216 77.1144 26.216Z" fill="white"/>
<path d="M98.2519 26.264C96.3479 26.264 94.7319 25.904 93.4039 25.184C92.0919 24.464 91.0919 23.456 90.4039 22.16C89.7159 20.864 89.3719 19.344 89.3719 17.6C89.3719 16.256 89.5719 15.048 89.9719 13.976C90.3879 12.888 90.9799 11.968 91.7479 11.216C92.5319 10.448 93.4759 9.856 94.5799 9.44C95.6999 9.024 96.9639 8.816 98.3719 8.816C99.2359 8.816 100.1 8.912 100.964 9.104C101.828 9.296 102.66 9.616 103.46 10.064C103.796 10.256 104.02 10.504 104.132 10.808C104.26 11.096 104.292 11.408 104.228 11.744C104.18 12.064 104.052 12.352 103.844 12.608C103.652 12.848 103.396 13.008 103.076 13.088C102.772 13.152 102.42 13.088 102.02 12.896C101.492 12.608 100.932 12.4 100.34 12.272C99.7479 12.128 99.0999 12.056 98.3959 12.056C97.2599 12.056 96.3079 12.272 95.5399 12.704C94.7719 13.12 94.1959 13.744 93.8119 14.576C93.4439 15.392 93.2599 16.4 93.2599 17.6C93.2599 19.408 93.6919 20.776 94.5559 21.704C95.4359 22.632 96.7319 23.096 98.4439 23.096C99.0199 23.096 99.6119 23.04 100.22 22.928C100.828 22.816 101.428 22.656 102.02 22.448L101.324 23.96V19.352H99.1639C98.6839 19.352 98.3159 19.232 98.0599 18.992C97.8039 18.752 97.6759 18.424 97.6759 18.008C97.6759 17.576 97.8039 17.248 98.0599 17.024C98.3159 16.784 98.6839 16.664 99.1639 16.664H102.932C103.412 16.664 103.772 16.792 104.012 17.048C104.268 17.304 104.396 17.672 104.396 18.152V23.72C104.396 24.136 104.316 24.488 104.156 24.776C103.996 25.064 103.724 25.272 103.34 25.4C102.62 25.656 101.812 25.864 100.916 26.024C100.02 26.184 99.1319 26.264 98.2519 26.264ZM111.36 26.264C110.496 26.264 109.72 26.096 109.032 25.76C108.344 25.424 107.808 24.968 107.424 24.392C107.04 23.816 106.848 23.168 106.848 22.448C106.848 21.584 107.072 20.904 107.52 20.408C107.968 19.896 108.696 19.536 109.704 19.328C110.712 19.104 112.048 18.992 113.712 18.992H114.984V20.864H113.736C112.92 20.864 112.256 20.912 111.744 21.008C111.248 21.088 110.888 21.232 110.664 21.44C110.456 21.648 110.352 21.936 110.352 22.304C110.352 22.752 110.504 23.12 110.808 23.408C111.128 23.696 111.584 23.84 112.176 23.84C112.64 23.84 113.048 23.736 113.4 23.528C113.768 23.304 114.056 23.008 114.264 22.64C114.472 22.256 114.576 21.824 114.576 21.344V18.584C114.576 17.88 114.416 17.384 114.096 17.096C113.776 16.792 113.232 16.64 112.464 16.64C112.032 16.64 111.56 16.696 111.048 16.808C110.552 16.904 110 17.072 109.392 17.312C109.04 17.472 108.728 17.512 108.456 17.432C108.184 17.336 107.976 17.176 107.832 16.952C107.688 16.712 107.616 16.456 107.616 16.184C107.616 15.896 107.696 15.624 107.856 15.368C108.016 15.096 108.28 14.896 108.648 14.768C109.4 14.464 110.104 14.256 110.76 14.144C111.432 14.032 112.048 13.976 112.608 13.976C113.84 13.976 114.848 14.16 115.632 14.528C116.432 14.88 117.032 15.432 117.432 16.184C117.832 16.92 118.032 17.872 118.032 19.04V24.368C118.032 24.96 117.888 25.416 117.6 25.736C117.312 26.056 116.896 26.216 116.352 26.216C115.808 26.216 115.384 26.056 115.08 25.736C114.792 25.416 114.648 24.96 114.648 24.368V23.48L114.816 23.624C114.72 24.168 114.512 24.64 114.192 25.04C113.888 25.424 113.496 25.728 113.016 25.952C112.536 26.16 111.984 26.264 111.36 26.264ZM125.32 26.264C124.296 26.264 123.392 26.016 122.608 25.52C121.84 25.024 121.24 24.312 120.808 23.384C120.376 22.456 120.16 21.36 120.16 20.096C120.16 18.832 120.376 17.744 120.808 16.832C121.24 15.92 121.84 15.216 122.608 14.72C123.392 14.224 124.296 13.976 125.32 13.976C126.248 13.976 127.064 14.2 127.768 14.648C128.488 15.096 128.976 15.68 129.232 16.4H128.968V10.712C128.968 10.104 129.12 9.648 129.424 9.344C129.728 9.024 130.176 8.864 130.768 8.864C131.344 8.864 131.792 9.024 132.112 9.344C132.432 9.648 132.592 10.104 132.592 10.712V24.368C132.592 24.96 132.432 25.416 132.112 25.736C131.808 26.056 131.368 26.216 130.792 26.216C130.216 26.216 129.768 26.056 129.448 25.736C129.144 25.416 128.992 24.96 128.992 24.368V22.736L129.256 23.672C129.032 24.456 128.552 25.088 127.816 25.568C127.096 26.032 126.264 26.264 125.32 26.264ZM126.4 23.552C126.928 23.552 127.384 23.424 127.768 23.168C128.152 22.912 128.456 22.536 128.68 22.04C128.904 21.528 129.016 20.88 129.016 20.096C129.016 18.928 128.776 18.072 128.296 17.528C127.816 16.968 127.184 16.688 126.4 16.688C125.888 16.688 125.432 16.808 125.032 17.048C124.648 17.288 124.344 17.664 124.12 18.176C123.912 18.672 123.808 19.312 123.808 20.096C123.808 21.264 124.048 22.136 124.528 22.712C125.008 23.272 125.632 23.552 126.4 23.552ZM141.048 30.584C140.184 30.584 139.352 30.512 138.552 30.368C137.768 30.224 137.072 30.008 136.464 29.72C136.096 29.56 135.832 29.352 135.672 29.096C135.528 28.84 135.464 28.568 135.48 28.28C135.512 27.992 135.608 27.736 135.768 27.512C135.944 27.288 136.16 27.128 136.416 27.032C136.672 26.952 136.944 26.976 137.232 27.104C137.936 27.424 138.584 27.632 139.176 27.728C139.784 27.824 140.304 27.872 140.736 27.872C141.76 27.872 142.528 27.64 143.04 27.176C143.552 26.712 143.808 26 143.808 25.04V23.216H144.024C143.784 23.952 143.288 24.552 142.536 25.016C141.784 25.48 140.952 25.712 140.04 25.712C138.984 25.712 138.064 25.472 137.28 24.992C136.496 24.496 135.888 23.808 135.456 22.928C135.024 22.032 134.808 21 134.808 19.832C134.808 18.952 134.928 18.152 135.168 17.432C135.424 16.712 135.776 16.096 136.224 15.584C136.688 15.072 137.24 14.68 137.88 14.408C138.536 14.12 139.256 13.976 140.04 13.976C140.984 13.976 141.816 14.208 142.536 14.672C143.272 15.12 143.76 15.712 144 16.448L143.76 17.216V15.848C143.76 15.256 143.912 14.808 144.216 14.504C144.536 14.184 144.984 14.024 145.56 14.024C146.136 14.024 146.576 14.184 146.88 14.504C147.184 14.808 147.336 15.256 147.336 15.848V24.632C147.336 26.6 146.792 28.08 145.704 29.072C144.632 30.08 143.08 30.584 141.048 30.584ZM141.12 23C141.664 23 142.128 22.872 142.512 22.616C142.912 22.36 143.224 22 143.448 21.536C143.672 21.056 143.784 20.488 143.784 19.832C143.784 18.84 143.536 18.072 143.04 17.528C142.56 16.968 141.92 16.688 141.12 16.688C140.576 16.688 140.104 16.816 139.704 17.072C139.304 17.312 138.992 17.672 138.768 18.152C138.56 18.616 138.456 19.176 138.456 19.832C138.456 20.824 138.696 21.6 139.176 22.16C139.656 22.72 140.304 23 141.12 23ZM156.27 26.264C154.878 26.264 153.678 26.016 152.67 25.52C151.678 25.008 150.91 24.296 150.366 23.384C149.838 22.456 149.574 21.368 149.574 20.12C149.574 18.904 149.83 17.84 150.342 16.928C150.854 16 151.566 15.28 152.478 14.768C153.406 14.24 154.454 13.976 155.622 13.976C156.47 13.976 157.238 14.12 157.926 14.408C158.614 14.68 159.206 15.08 159.702 15.608C160.198 16.12 160.574 16.752 160.83 17.504C161.086 18.24 161.214 19.064 161.214 19.976C161.214 20.28 161.118 20.512 160.926 20.672C160.734 20.816 160.454 20.888 160.086 20.888H152.55V19.016H158.598L158.214 19.352C158.214 18.696 158.118 18.152 157.926 17.72C157.734 17.272 157.454 16.936 157.086 16.712C156.734 16.488 156.294 16.376 155.766 16.376C155.174 16.376 154.67 16.512 154.254 16.784C153.838 17.056 153.518 17.448 153.294 17.96C153.07 18.472 152.958 19.088 152.958 19.808V20C152.958 21.216 153.238 22.112 153.798 22.688C154.374 23.264 155.222 23.552 156.342 23.552C156.726 23.552 157.166 23.504 157.662 23.408C158.158 23.312 158.622 23.16 159.054 22.952C159.422 22.776 159.75 22.72 160.038 22.784C160.326 22.832 160.55 22.96 160.71 23.168C160.87 23.376 160.958 23.616 160.974 23.888C161.006 24.16 160.95 24.432 160.806 24.704C160.662 24.96 160.422 25.176 160.086 25.352C159.542 25.656 158.926 25.88 158.238 26.024C157.566 26.184 156.91 26.264 156.27 26.264ZM169.035 26.264C167.931 26.264 167.003 26.08 166.251 25.712C165.515 25.344 164.963 24.808 164.595 24.104C164.243 23.4 164.067 22.512 164.067 21.44V16.928H163.059C162.611 16.928 162.259 16.808 162.003 16.568C161.763 16.328 161.643 16 161.643 15.584C161.643 15.136 161.763 14.8 162.003 14.576C162.259 14.336 162.611 14.216 163.059 14.216H164.067V12.392C164.067 11.784 164.227 11.328 164.547 11.024C164.867 10.704 165.315 10.544 165.891 10.544C166.483 10.544 166.931 10.704 167.235 11.024C167.539 11.328 167.691 11.784 167.691 12.392V14.216H169.971C170.419 14.216 170.763 14.336 171.003 14.576C171.243 14.8 171.363 15.136 171.363 15.584C171.363 16 171.243 16.328 171.003 16.568C170.763 16.808 170.419 16.928 169.971 16.928H167.691V21.296C167.691 21.968 167.843 22.472 168.147 22.808C168.467 23.144 168.971 23.312 169.659 23.312C169.899 23.312 170.123 23.288 170.331 23.24C170.539 23.192 170.731 23.16 170.907 23.144C171.131 23.128 171.315 23.2 171.459 23.36C171.603 23.504 171.675 23.832 171.675 24.344C171.675 24.728 171.611 25.064 171.483 25.352C171.355 25.64 171.131 25.848 170.811 25.976C170.603 26.056 170.315 26.12 169.947 26.168C169.595 26.232 169.291 26.264 169.035 26.264ZM177.467 26.264C176.763 26.264 176.035 26.2 175.283 26.072C174.547 25.944 173.875 25.728 173.267 25.424C172.947 25.264 172.715 25.064 172.571 24.824C172.443 24.568 172.387 24.312 172.403 24.056C172.419 23.8 172.499 23.568 172.643 23.36C172.803 23.152 173.003 23.016 173.243 22.952C173.499 22.872 173.779 22.896 174.083 23.024C174.739 23.296 175.339 23.488 175.883 23.6C176.427 23.712 176.963 23.768 177.491 23.768C178.179 23.768 178.675 23.664 178.979 23.456C179.299 23.232 179.459 22.944 179.459 22.592C179.459 22.272 179.355 22.032 179.147 21.872C178.939 21.712 178.635 21.6 178.235 21.536L175.715 21.08C174.723 20.904 173.955 20.544 173.411 20C172.883 19.44 172.619 18.728 172.619 17.864C172.619 17.064 172.843 16.376 173.291 15.8C173.739 15.208 174.355 14.76 175.139 14.456C175.939 14.136 176.843 13.976 177.851 13.976C178.571 13.976 179.235 14.04 179.843 14.168C180.451 14.296 181.035 14.504 181.595 14.792C181.883 14.936 182.083 15.128 182.195 15.368C182.323 15.608 182.363 15.856 182.315 16.112C182.283 16.368 182.187 16.6 182.027 16.808C181.867 17.016 181.659 17.152 181.403 17.216C181.163 17.28 180.883 17.248 180.563 17.12C180.051 16.88 179.579 16.712 179.147 16.616C178.715 16.504 178.299 16.448 177.898 16.448C177.179 16.448 176.659 16.568 176.339 16.808C176.019 17.032 175.859 17.32 175.859 17.672C175.859 17.944 175.947 18.176 176.123 18.368C176.315 18.544 176.603 18.664 176.987 18.728L179.507 19.184C180.547 19.36 181.339 19.712 181.883 20.24C182.427 20.752 182.699 21.456 182.699 22.352C182.699 23.568 182.219 24.528 181.259 25.232C180.315 25.92 179.051 26.264 177.467 26.264Z" fill="white"/>
<path d="M15.8195 31.3599C8.43389 31.3599 2.42493 25.351 2.42493 17.9647C2.42493 13.2377 4.84157 8.95159 8.89021 6.50039C9.09633 6.37554 9.32503 6.29251 9.56324 6.25604C9.80145 6.21958 10.0445 6.23039 10.2785 6.28786C10.5126 6.34532 10.733 6.44833 10.9272 6.59098C11.1215 6.73363 11.2857 6.91315 11.4105 7.11927C11.5354 7.32539 11.6184 7.55409 11.6549 7.7923C11.6913 8.03051 11.6805 8.27357 11.6231 8.5076C11.5656 8.74164 11.4626 8.96206 11.3199 9.15629C11.1773 9.35051 10.9978 9.51474 10.7916 9.63959C7.85085 11.4201 6.09533 14.533 6.09533 17.9647C6.09533 23.3273 10.4576 27.6895 15.8201 27.6895C21.1827 27.6895 25.5443 23.3273 25.5443 17.9647C25.5443 14.4767 23.6601 11.2351 20.6246 9.50711C20.4108 9.39023 20.2225 9.23196 20.0705 9.04151C19.9186 8.85107 19.8061 8.63227 19.7396 8.39788C19.6731 8.1635 19.654 7.91821 19.6833 7.67635C19.7126 7.43449 19.7898 7.20088 19.9104 6.98917C20.0309 6.77745 20.1924 6.59187 20.3855 6.44324C20.5785 6.29462 20.7992 6.18592 21.0347 6.1235C21.2702 6.06109 21.5158 6.04619 21.7571 6.07969C21.9985 6.1132 22.2307 6.19442 22.4403 6.31863C24.4953 7.4912 26.2041 9.18583 27.3937 11.231C28.5833 13.2762 29.2115 15.5994 29.2147 17.9653C29.214 25.3509 23.2064 31.3599 15.8195 31.3599ZM15.68 17.7817C14.6668 17.7817 13.44 16.9599 13.44 15.9468V2.73527C13.44 1.72215 14.6668 0.900391 15.68 0.900391C16.6931 0.900391 17.92 1.72215 17.92 2.73527V15.9468C17.92 16.9599 16.6931 17.7817 15.68 17.7817Z" fill="white"/>
</svg>
